<svg width="192" height="192" viewBox="0 0 192 192" fill="none" xmlns="http://www.w3.org/2000/svg">
<rect width="192" height="192" rx="16" fill="url(#paint0_linear_71_1166)"/>
<path d="M60.664 119L48.248 96.792L47.8 95.64L47.224 96.792L42.168 103.448C41.784 102.595 41.592 101.549 41.592 100.312C41.592 99.0533 41.7947 97.752 42.2 96.408C42.6053 95.064 43.2347 93.8053 44.088 92.632L59 72.472H65.912L51.448 91.288L68.024 119H60.664ZM32.696 119V72.472H38.776V119H32.696ZM83.0085 119.64C80.7898 119.64 78.8698 119.245 77.2485 118.456C75.6485 117.645 74.4112 116.557 73.5365 115.192C72.6832 113.827 72.2565 112.28 72.2565 110.552C72.2565 108.397 72.8218 106.616 73.9525 105.208C75.0832 103.779 76.9392 102.627 79.5205 101.752C82.1232 100.877 85.6112 100.184 89.9845 99.672C89.8992 100.184 89.7072 100.792 89.4085 101.496C89.1312 102.2 88.6725 102.851 88.0325 103.448C87.3925 104.045 86.5072 104.429 85.3765 104.6C83.4992 104.899 82.0698 105.336 81.0885 105.912C80.1285 106.488 79.4672 107.149 79.1045 107.896C78.7632 108.621 78.5925 109.379 78.5925 110.168C78.5925 111.469 79.0618 112.611 80.0005 113.592C80.9392 114.552 82.2192 115.032 83.8405 115.032C85.2912 115.032 86.7525 114.669 88.2245 113.944C89.6965 113.219 91.0512 112.045 92.2885 110.424V98.456C92.2885 95.9173 91.6698 93.8587 90.4325 92.28C89.2165 90.68 87.1472 89.88 84.2245 89.88C83.0725 89.88 81.9312 89.9973 80.8005 90.232C79.6698 90.4667 78.3365 90.8613 76.8005 91.416L75.3285 87.448C77.4192 86.552 79.2645 85.9653 80.8645 85.688C82.4645 85.4107 83.9685 85.272 85.3765 85.272C89.4725 85.272 92.6512 86.4667 94.9125 88.856C97.1738 91.224 98.3045 94.5733 98.3045 98.904V108.056C98.3045 110.616 98.4005 112.803 98.5925 114.616C98.8058 116.408 99.0512 117.869 99.3285 119H94.9765C94.3792 118.637 93.9098 118.168 93.5685 117.592C93.2272 117.016 92.9285 116.397 92.6725 115.736L92.6085 114.584L91.9045 115.736C90.2832 117.357 88.7792 118.413 87.3925 118.904C86.0058 119.395 84.5445 119.64 83.0085 119.64ZM120.407 119.704C116.929 119.704 114.252 118.563 112.375 116.28C110.519 113.997 109.591 110.829 109.591 106.776V90.328H103.703V87.448L109.591 85.912V77.464L115.223 75.672V107.48C115.223 109.677 115.692 111.523 116.631 113.016C117.591 114.488 118.849 115.224 120.407 115.224C121.239 115.224 122.039 115.149 122.807 115C123.596 114.851 124.545 114.605 125.655 114.264L127.063 118.296C125.441 118.829 124.183 119.192 123.287 119.384C122.391 119.597 121.431 119.704 120.407 119.704ZM122.903 90.328C121.9 90.328 121.047 90.136 120.343 89.752C119.66 89.3467 119.084 88.8133 118.615 88.152C118.167 87.4693 117.804 86.7227 117.527 85.912H126.551V90.328H122.903ZM138.057 134.744C137.203 134.701 136.297 134.595 135.337 134.424C134.377 134.275 133.449 134.061 132.553 133.784L134.089 129.56C134.793 129.752 135.475 129.891 136.137 129.976C136.819 130.083 137.459 130.136 138.057 130.136C139.699 130.136 141.011 129.539 141.993 128.344C142.995 127.149 143.87 125.528 144.617 123.48C145.363 121.453 146.185 119.171 147.081 116.632L157.001 85.912H163.208L151.497 118.296C150.643 120.557 149.833 122.669 149.065 124.632C148.297 126.616 147.443 128.365 146.505 129.88C145.566 131.395 144.425 132.579 143.081 133.432C141.737 134.285 140.062 134.723 138.057 134.744ZM143.305 118.36L131.337 85.912H137.609L144.649 107.544C145.118 108.909 145.353 110.296 145.353 111.704C145.353 113.091 145.171 114.371 144.809 115.544C144.446 116.717 143.945 117.656 143.305 118.36Z" fill="white"/>
<defs>
<linearGradient id="paint0_linear_71_1166" x1="-1.47537e-06" y1="74" x2="192" y2="74.5" gradientUnits="userSpaceOnUse">
<stop stop-color="#030207"/>
<stop offset="1" stop-color="#171552"/>
</linearGradient>
</defs>
</svg>
