<svg width="512" height="512" viewBox="0 0 512 512" fill="none" xmlns="http://www.w3.org/2000/svg">
<rect width="512" height="512" rx="24" fill="url(#paint0_linear_71_1168)"/>
<path d="M102.288 288L85.216 257.464L84.6 255.88L83.808 257.464L76.856 266.616C76.328 265.443 76.064 264.005 76.064 262.304C76.064 260.573 76.3427 258.784 76.9 256.936C77.4573 255.088 78.3227 253.357 79.496 251.744L100 224.024H109.504L89.616 249.896L112.408 288H102.288ZM63.832 288V224.024H72.192V288H63.832ZM133.012 288.88C129.961 288.88 127.321 288.337 125.092 287.252C122.892 286.137 121.19 284.641 119.988 282.764C118.814 280.887 118.228 278.76 118.228 276.384C118.228 273.421 119.005 270.972 120.56 269.036C122.114 267.071 124.666 265.487 128.216 264.284C131.794 263.081 136.59 262.128 142.604 261.424C142.486 262.128 142.222 262.964 141.812 263.932C141.43 264.9 140.8 265.795 139.92 266.616C139.04 267.437 137.822 267.965 136.268 268.2C133.686 268.611 131.721 269.212 130.372 270.004C129.052 270.796 128.142 271.705 127.644 272.732C127.174 273.729 126.94 274.771 126.94 275.856C126.94 277.645 127.585 279.215 128.876 280.564C130.166 281.884 131.926 282.544 134.156 282.544C136.15 282.544 138.16 282.045 140.184 281.048C142.208 280.051 144.07 278.437 145.772 276.208V259.752C145.772 256.261 144.921 253.431 143.22 251.26C141.548 249.06 138.702 247.96 134.684 247.96C133.1 247.96 131.53 248.121 129.976 248.444C128.421 248.767 126.588 249.309 124.476 250.072L122.452 244.616C125.326 243.384 127.864 242.577 130.064 242.196C132.264 241.815 134.332 241.624 136.268 241.624C141.9 241.624 146.27 243.267 149.38 246.552C152.489 249.808 154.044 254.413 154.044 260.368V272.952C154.044 276.472 154.176 279.479 154.44 281.972C154.733 284.436 155.07 286.445 155.452 288H149.468C148.646 287.501 148.001 286.856 147.532 286.064C147.062 285.272 146.652 284.421 146.3 283.512L146.212 281.928L145.244 283.512C143.014 285.741 140.946 287.193 139.04 287.868C137.133 288.543 135.124 288.88 133.012 288.88ZM184.434 288.968C179.653 288.968 175.971 287.399 173.39 284.26C170.838 281.121 169.562 276.765 169.562 271.192V248.576H161.466V244.616L169.562 242.504V230.888L177.306 228.424V272.16C177.306 275.181 177.951 277.719 179.242 279.772C180.562 281.796 182.293 282.808 184.434 282.808C185.578 282.808 186.678 282.705 187.734 282.5C188.819 282.295 190.125 281.957 191.65 281.488L193.586 287.032C191.357 287.765 189.626 288.264 188.394 288.528C187.162 288.821 185.842 288.968 184.434 288.968ZM187.866 248.576C186.487 248.576 185.314 248.312 184.346 247.784C183.407 247.227 182.615 246.493 181.97 245.584C181.354 244.645 180.855 243.619 180.474 242.504H192.882V248.576H187.866ZM208.703 309.648C207.529 309.589 206.283 309.443 204.963 309.208C203.643 309.003 202.367 308.709 201.135 308.328L203.247 302.52C204.215 302.784 205.153 302.975 206.063 303.092C207.001 303.239 207.881 303.312 208.703 303.312C210.961 303.312 212.765 302.491 214.115 300.848C215.493 299.205 216.696 296.976 217.723 294.16C218.749 291.373 219.879 288.235 221.111 284.744L234.751 242.504H243.287L227.183 287.032C226.009 290.141 224.895 293.045 223.839 295.744C222.783 298.472 221.609 300.877 220.319 302.96C219.028 305.043 217.459 306.671 215.611 307.844C213.763 309.017 211.46 309.619 208.703 309.648ZM215.919 287.12L199.463 242.504H208.087L217.767 272.248C218.412 274.125 218.735 276.032 218.735 277.968C218.735 279.875 218.485 281.635 217.987 283.248C217.488 284.861 216.799 286.152 215.919 287.12ZM275.066 288V224.816C277.266 224.376 279.334 224.009 281.27 223.716C283.206 223.423 285.128 223.203 287.034 223.056C288.941 222.88 290.965 222.792 293.106 222.792C297.829 222.792 301.921 223.657 305.382 225.388C308.873 227.089 311.572 229.377 313.478 232.252C315.385 235.127 316.338 238.28 316.338 241.712C316.338 245.261 315.356 248.371 313.39 251.04C311.425 253.709 308.917 255.821 305.866 257.376L303.754 258.08L305.514 258.784C307.685 260.221 309.357 261.996 310.53 264.108C311.704 266.22 312.657 268.567 313.39 271.148C314.124 273.7 314.872 276.413 315.634 279.288C316.397 282.133 317.453 285.037 318.802 288H310.002C308.829 285.477 307.89 282.793 307.186 279.948C306.482 277.073 305.749 274.301 304.986 271.632C304.224 268.963 303.197 266.616 301.906 264.592C300.645 262.539 298.856 261.072 296.538 260.192C294.866 260.368 293.253 260.412 291.698 260.324C290.173 260.207 288.589 259.957 286.946 259.576C287.386 258.579 287.973 257.684 288.706 256.892C289.469 256.071 290.349 255.425 291.346 254.956C292.344 254.487 293.458 254.237 294.69 254.208C296.714 254.149 298.694 253.577 300.63 252.492C302.596 251.407 304.224 249.925 305.514 248.048C306.805 246.171 307.45 244.029 307.45 241.624C307.45 239.307 306.805 237.209 305.514 235.332C304.224 233.455 302.493 231.973 300.322 230.888C298.152 229.773 295.746 229.216 293.106 229.216C291.493 229.216 289.997 229.245 288.618 229.304C287.269 229.363 285.538 229.597 283.426 230.008V288H275.066ZM349.025 288.88C345.094 288.88 341.516 287.971 338.289 286.152C335.092 284.333 332.54 281.664 330.633 278.144C328.756 274.624 327.817 270.312 327.817 265.208C327.817 261.189 328.418 257.699 329.621 254.736C330.853 251.773 332.481 249.324 334.505 247.388C336.558 245.452 338.846 244.015 341.369 243.076C343.892 242.108 346.444 241.624 349.025 241.624C353.513 241.624 357.341 242.68 360.509 244.792C363.677 246.875 366.082 249.705 367.725 253.284C369.397 256.833 370.233 260.808 370.233 265.208C370.233 269.021 369.661 272.409 368.517 275.372C367.402 278.305 365.862 280.784 363.897 282.808C361.932 284.803 359.673 286.313 357.121 287.34C354.569 288.367 351.87 288.88 349.025 288.88ZM349.025 282.544C351.87 282.544 354.217 281.752 356.065 280.168C357.913 278.584 359.277 276.487 360.157 273.876C361.066 271.236 361.521 268.347 361.521 265.208C361.521 261.277 360.934 258.036 359.761 255.484C358.617 252.932 357.092 251.04 355.185 249.808C353.308 248.576 351.254 247.96 349.025 247.96C346.796 247.96 344.728 248.576 342.821 249.808C340.944 251.04 339.418 252.932 338.245 255.484C337.101 258.036 336.529 261.277 336.529 265.208C336.529 270.312 337.614 274.477 339.785 277.704C341.956 280.931 345.036 282.544 349.025 282.544ZM393.413 288.88C391.183 288.88 388.793 288.675 386.241 288.264C383.718 287.883 380.741 286.856 377.309 285.184L379.421 279.376C381.679 280.461 383.938 281.268 386.197 281.796C388.455 282.295 390.509 282.544 392.357 282.544C394.997 282.544 396.962 281.928 398.253 280.696C399.543 279.464 400.189 277.88 400.189 275.944C400.189 274.331 399.675 272.996 398.649 271.94C397.622 270.884 396.302 269.945 394.689 269.124C393.075 268.303 391.359 267.481 389.541 266.66C387.722 265.809 386.006 264.841 384.393 263.756C382.779 262.641 381.459 261.263 380.433 259.62C379.406 257.977 378.893 255.939 378.893 253.504C378.893 251.627 379.421 249.793 380.477 248.004C381.562 246.185 383.146 244.689 385.229 243.516C387.341 242.313 389.922 241.712 392.973 241.712C394.645 241.712 396.478 241.873 398.473 242.196C400.497 242.519 402.741 243.12 405.205 244L403.181 249.72C401.333 249.104 399.617 248.664 398.033 248.4C396.478 248.107 395.085 247.96 393.853 247.96C391.829 247.96 390.142 248.429 388.793 249.368C387.473 250.307 386.813 251.685 386.813 253.504C386.813 255.059 387.326 256.364 388.353 257.42C389.379 258.476 390.699 259.415 392.313 260.236C393.926 261.057 395.642 261.908 397.461 262.788C399.279 263.639 400.995 264.636 402.609 265.78C404.222 266.924 405.542 268.347 406.569 270.048C407.595 271.72 408.109 273.832 408.109 276.384C408.109 278.613 407.419 280.681 406.041 282.588C404.662 284.465 402.858 285.991 400.629 287.164C398.399 288.308 395.994 288.88 393.413 288.88ZM418.23 288V221.296H426.238V288H418.23ZM440.134 288V242.504H448.582V288H440.134ZM444.358 234.584C442.862 234.584 441.6 234.085 440.574 233.088C439.576 232.061 439.078 230.8 439.078 229.304C439.078 227.749 439.576 226.473 440.574 225.476C441.6 224.449 442.862 223.936 444.358 223.936C445.912 223.936 447.174 224.449 448.142 225.476C449.139 226.473 449.638 227.749 449.638 229.304C449.638 230.8 449.139 232.061 448.142 233.088C447.174 234.085 445.912 234.584 444.358 234.584Z" fill="white"/>
<defs>
<linearGradient id="paint0_linear_71_1168" x1="-3.93432e-06" y1="197.333" x2="512" y2="198.667" gradientUnits="userSpaceOnUse">
<stop stop-color="#030207"/>
<stop offset="1" stop-color="#171552"/>
</linearGradient>
</defs>
</svg>
